<svg xmlns="http://www.w3.org/2000/svg" xmlns:xlink="http://www.w3.org/1999/xlink"><symbol id="behance" fill-rule="evenodd" clip-rule="evenodd" stroke-linejoin="round" stroke-miterlimit="1.414"><path d="M 14.696675,2.8176164 H 10.027142 V 1.489 h 4.669533 z m 1.151373,6.6430819 C 15.5532,10.322306 14.49455,11.453623 12.445293,11.453623 c -2.050592,0 -3.711612,-1.148589 -3.711612,-3.7699491 0,-2.597445 1.550952,-3.9327045 3.646238,-3.9327045 2.055929,0 3.311366,1.1837972 3.585535,2.9402281 0.05203,0.3361399 0.07272,0.7891982 0.06337,1.4216195 h -5.35462 c 0.08672,2.133093 2.323426,2.200188 3.060544,1.3478813 z M 10.720901,6.8034655 h 3.312033 C 13.96289,5.7757808 13.275136,5.3293657 12.380586,5.3293657 c -0.977933,0 -1.518932,0.5101887 -1.659685,1.4740998 z M 4.3343141,11.445652 H 0.021 V 1.5029505 H 4.6591802 C 8.312089,1.5567591 8.3814648,5.1194443 6.4736273,6.0906629 8.7823774,6.9276912 8.8597588,11.445652 4.3343141,11.445652 Z M 2.0222284,5.4748491 h 2.3908007 c 1.673027,0 1.9385232,-1.9929245 -0.2081277,-1.9929245 H 2.0222284 Z M 4.2842835,7.4677738 H 2.0222284 v 2.0035534 h 2.2287013 c 2.0379175,0 1.9131743,-2.0035534 0.033354,-2.0035534 z"/></symbol></svg>